# xmcd CD database file
#
# Track frame offsets:
#	150
#	6526
#	30117
#	49555
#	74569
#	88397
#	118567
#	132470
#	171464
#	179732
#
# Disc length: 2760 seconds
#
# Revision: 0
# Processed by: cddbd v1.5.2PL0 Copyright (c) Steve Scherf et al.
# Submitted via: CDex 1.77
#
DISCID=910ac60a
DTITLE=Nils Petter Molvaer - Hamada
DYEAR=2009
DGENRE=Jazz
TTITLE0=Exhumation
TTITLE1=Sabkah
TTITLE2=Icy Altitude
TTITLE3=Friction
TTITLE4=Monocline
TTITLE5=Soft Moon Shine
TTITLE6=Monocline Revisited
TTITLE7=Cruel Altitude
TTITLE8=Lahar
TTITLE9=Anticline
EXTD=YEAR: 2009
EXTT0=
EXTT1=
EXTT2=
EXTT3=
EXTT4=
EXTT5=
EXTT6=
EXTT7=
EXTT8=
EXTT9=
PLAYORDER=
